<?xml version="1.0" standalone="no"?>
<!DOCTYPE svg PUBLIC "-//W3C//DTD SVG 20010904//EN"
 "http://www.w3.org/TR/2001/REC-SVG-20010904/DTD/svg10.dtd">
<svg version="1.0" xmlns="http://www.w3.org/2000/svg"
 width="249.000000pt" height="249.000000pt" viewBox="0 0 249.000000 249.000000"
 preserveAspectRatio="xMidYMid meet">
<metadata>
Created by potrace 1.11, written by Peter Selinger 2001-2013
</metadata>
<g transform="translate(0.000000,249.000000) scale(0.100000,-0.100000)"
fill="#000000" stroke="none">
<path d="M930 2471 c-283 -41 -549 -195 -710 -412 -81 -109 -125 -192 -164
-311 -107 -321 -57 -675 134 -952 63 -91 203 -228 288 -281 117 -73 115 -52
17 -196 -116 -173 -115 -201 12 -287 17 -12 44 -22 60 -22 52 0 77 29 246 278
39 58 44 62 77 60 34 -3 35 -4 38 -48 4 -66 10 -87 33 -109 28 -25 71 -32 143
-22 80 11 106 41 106 124 l0 57 38 0 c28 0 41 -6 51 -23 48 -77 172 -248 204
-279 58 -58 103 -50 195 36 25 24 32 38 32 69 0 33 -14 60 -85 166 -98 144
-100 123 17 196 35 21 103 78 151 124 144 139 241 303 294 496 24 90 27 116
27 270 0 178 -17 281 -65 393 -27 62 -25 72 14 73 42 0 382 152 382 170 0 8
-14 19 -32 24 -47 16 -47 19 5 47 35 19 48 32 50 51 5 37 -33 45 -84 18 -21
-12 -42 -21 -47 -21 -5 0 -7 18 -6 40 2 21 0 42 -3 46 -11 10 -334 -215 -346
-241 -15 -33 -23 -31 -48 8 -107 165 -308 323 -504 396 -151 56 -375 83 -520
62z"/>
</g>
</svg>
