<?xml version="1.0" standalone="no"?>
<!DOCTYPE svg PUBLIC "-//W3C//DTD SVG 20010904//EN"
 "http://www.w3.org/TR/2001/REC-SVG-20010904/DTD/svg10.dtd">
<svg version="1.0" xmlns="http://www.w3.org/2000/svg"
 width="512.000000pt" height="512.000000pt" viewBox="0 0 512.000000 512.000000"
 preserveAspectRatio="xMidYMid meet">
<metadata>
Created by potrace 1.14, written by Peter Selinger 2001-2017
</metadata>
<g transform="translate(0.000000,512.000000) scale(0.100000,-0.100000)"
fill="#000000" stroke="none">
<path d="M2498 4873 c-12 -14 -16 -44 -18 -123 -1 -58 -3 -184 -5 -280 -2 -96
-4 -238 -5 -314 0 -77 -2 -137 -4 -135 -3 3 -8 27 -11 54 -4 28 -9 52 -10 55
-2 3 -6 26 -9 50 -6 42 -9 56 -21 120 -7 32 -14 71 -20 113 -6 35 -22 125 -31
172 -3 17 -6 38 -7 48 -1 15 -10 21 -28 19 -32 -4 -108 -15 -124 -18 -11 -2
-33 -7 -50 -9 -16 -3 -55 -13 -85 -22 -30 -9 -57 -17 -60 -18 -43 -10 -115
-37 -180 -69 -30 -14 -61 -26 -67 -26 -7 0 -13 -3 -13 -8 0 -4 -15 -13 -32
-21 -32 -14 -170 -102 -194 -125 -7 -6 -25 -20 -39 -31 -41 -30 -207 -196
-235 -234 -14 -19 -34 -46 -46 -60 -12 -14 -26 -36 -33 -48 -10 -19 -19 -23
-59 -21 -26 0 -54 -1 -62 -3 -29 -8 -52 -38 -55 -74 -4 -40 21 -72 100 -130
22 -17 46 -35 52 -42 7 -6 66 -45 131 -86 188 -119 385 -217 587 -291 55 -20
107 -40 115 -43 8 -4 17 -7 20 -8 3 0 37 -10 75 -22 83 -26 297 -81 340 -88
17 -3 52 -10 78 -16 45 -10 89 -9 157 6 25 5 50 10 102 20 15 3 39 10 53 15
14 5 25 7 25 5 0 -2 11 0 26 5 14 6 39 12 57 16 39 6 336 105 392 130 22 10
42 18 45 19 17 5 54 21 118 51 40 18 76 34 80 35 4 0 14 7 23 15 9 8 19 11 22
7 4 -3 7 0 7 7 0 7 3 10 6 7 4 -4 19 2 33 12 14 10 36 22 49 25 12 4 22 12 22
17 0 6 5 7 10 4 6 -3 10 -1 10 4 0 6 6 11 14 11 8 0 21 6 28 13 7 6 30 21 51
32 20 11 37 23 37 27 0 5 5 8 11 8 6 0 24 10 39 23 36 29 63 48 91 67 49 33
119 106 122 129 5 33 -19 78 -46 87 -12 4 -42 6 -65 5 -34 -2 -49 2 -63 18
-10 11 -19 25 -19 31 0 5 -4 10 -8 10 -5 0 -13 9 -18 19 -20 42 -141 174 -230
251 -212 182 -459 302 -743 360 -114 23 -171 26 -172 8 -1 -25 -8 -69 -18
-121 -6 -28 -13 -68 -15 -87 -3 -19 -10 -60 -16 -90 -6 -30 -13 -68 -16 -85
-8 -57 -14 -90 -28 -165 -14 -75 -14 -75 -15 -25 -3 108 -13 566 -15 679 -1
103 -4 120 -21 132 -27 20 -98 18 -117 -3z m-351 -1009 l412 -96 113 26 c62
15 142 34 178 42 80 19 94 23 121 29 11 2 28 6 37 9 9 3 28 7 42 10 38 8 61
13 105 24 22 6 51 13 65 15 14 3 45 10 70 17 25 7 54 14 65 16 53 11 75 14 75
11 0 -5 -26 -179 -36 -236 -5 -29 -4 -42 3 -38 11 7 53 24 65 26 4 1 38 18 75
38 38 19 78 41 90 47 13 6 23 14 23 19 0 4 5 7 12 7 6 0 35 18 64 40 l53 40
18 -27 c10 -16 20 -30 24 -33 3 -3 9 -14 13 -25 5 -17 -9 -29 -82 -75 -48 -30
-105 -65 -127 -77 -58 -33 -259 -131 -268 -132 -4 0 -22 -8 -40 -17 -59 -31
-69 -36 -86 -39 -9 -2 -29 -9 -46 -16 -16 -6 -39 -14 -49 -16 -11 -2 -25 -8
-33 -14 -7 -6 -13 -8 -13 -4 0 4 -7 2 -15 -5 -8 -7 -15 -9 -15 -5 0 4 -7 2
-15 -5 -8 -7 -15 -10 -15 -6 0 4 -13 0 -30 -9 -16 -8 -31 -15 -32 -14 -2 1
-23 -4 -48 -11 -25 -7 -56 -14 -69 -17 -14 -2 -28 -6 -33 -9 -8 -5 -32 -11
-73 -19 -11 -2 -31 -6 -45 -9 -119 -28 -151 -29 -261 -6 -259 55 -528 146
-766 260 -131 63 -329 176 -380 217 l-21 18 31 47 c29 44 33 47 52 33 118 -84
250 -158 338 -188 18 -7 33 -5 30 3 0 3 -4 34 -8 70 -4 36 -9 68 -11 72 -3 4
-7 32 -10 64 -6 56 -6 57 17 51 13 -3 209 -49 436 -103z"/>
<path d="M1142 3428 c23 -35 50 -75 60 -90 10 -15 18 -32 18 -38 0 -5 4 -10 9
-10 5 0 15 -16 21 -35 6 -19 16 -35 21 -35 6 0 8 -4 4 -9 -3 -5 -1 -12 5 -16
9 -5 71 -131 117 -235 11 -25 26 -58 33 -75 8 -16 14 -32 14 -35 1 -3 5 -11 9
-17 5 -7 6 -13 3 -13 -3 0 5 -25 19 -55 13 -30 22 -55 20 -55 -3 0 0 -12 6
-27 6 -16 13 -36 15 -45 2 -10 6 -27 9 -38 13 -51 16 -67 21 -90 2 -14 7 -41
10 -60 13 -69 14 -86 15 -180 1 -147 -23 -265 -72 -362 l-19 -38 62 -45 c35
-25 79 -57 98 -71 19 -14 87 -63 150 -109 63 -46 130 -94 148 -107 18 -13 39
-28 45 -33 7 -6 70 -52 140 -103 143 -102 199 -147 177 -139 -8 3 -246 106
-528 231 -558 245 -507 229 -599 189 -18 -7 -36 -14 -40 -14 -5 -1 -17 -6 -28
-12 -11 -6 -22 -12 -25 -12 -3 0 -15 -6 -27 -13 -13 -7 -23 -11 -23 -8 0 3
-28 -8 -62 -23 -65 -29 -88 -38 -101 -40 -4 0 -21 -8 -37 -16 -16 -8 -33 -16
-37 -16 -5 0 -18 -7 -30 -15 -13 -8 -23 -12 -23 -9 0 3 -10 0 -22 -7 -13 -7
-25 -13 -28 -13 -3 -1 -17 -7 -32 -13 -26 -11 -27 -15 -23 -59 11 -130 48
-259 101 -358 40 -77 40 -76 119 -159 146 -153 367 -238 720 -276 55 -6 118
-13 140 -15 22 -3 72 -7 110 -10 39 -3 84 -7 100 -10 17 -2 55 -7 85 -10 239
-26 390 -113 415 -240 10 -51 12 -57 13 -72 2 -14 228 -18 236 -4 3 5 8 28 11
51 3 23 12 54 19 69 17 33 96 120 96 106 0 -6 3 -6 8 1 4 6 36 22 72 36 60 24
85 31 160 43 14 2 39 6 55 9 42 7 161 19 300 31 150 12 281 30 375 50 102 22
99 21 167 44 54 18 124 49 194 86 11 5 19 13 19 17 0 5 4 8 10 8 17 0 119 94
168 156 64 80 131 262 147 396 4 29 8 63 9 75 3 25 36 10 -374 178 -129 53
-241 98 -249 99 -8 2 -32 -6 -53 -16 -57 -28 -92 -41 -100 -40 -5 1 -8 -2 -8
-8 0 -6 -3 -9 -7 -8 -5 1 -25 -6 -47 -15 -21 -9 -40 -17 -42 -17 -2 0 -36 -16
-76 -35 -40 -20 -73 -35 -73 -35 0 3 -61 -22 -118 -48 -75 -35 -120 -55 -127
-57 -3 0 -26 -11 -52 -23 -26 -12 -49 -22 -52 -22 -3 0 -38 -15 -78 -34 -40
-18 -90 -41 -110 -50 -21 -9 -55 -24 -75 -33 -54 -24 -60 -25 -40 -11 10 7 27
20 37 28 10 8 28 22 40 30 47 32 146 105 158 117 7 7 16 13 20 13 4 0 23 14
42 30 19 16 38 30 42 30 4 0 13 6 20 13 7 7 29 24 48 37 19 13 40 29 47 35 37
31 43 35 53 35 5 0 10 3 10 8 0 4 18 18 40 32 22 13 40 28 40 32 0 4 5 8 10 8
6 0 16 5 23 10 55 47 74 61 90 66 9 3 17 9 17 14 0 5 8 11 18 14 24 9 87 66
72 66 -7 0 -10 3 -7 7 4 3 0 15 -10 25 -9 10 -13 18 -9 18 3 0 0 13 -8 29 -8
15 -17 40 -20 54 -2 15 -7 30 -10 35 -11 18 -20 133 -19 234 1 63 10 151 23
215 23 120 95 344 140 440 17 35 44 92 61 128 46 97 125 239 186 332 48 76 70
120 40 83 -7 -8 -29 -26 -49 -40 -21 -14 -38 -28 -38 -32 0 -5 -5 -8 -10 -8
-12 0 -73 -41 -78 -52 -2 -5 -9 -8 -16 -8 -7 0 -23 -9 -36 -20 -13 -11 -29
-20 -35 -20 -7 0 -18 -7 -25 -15 -7 -9 -15 -13 -18 -11 -3 3 -17 -3 -31 -13
-34 -23 -104 -56 -113 -53 -5 1 -8 -2 -8 -8 0 -6 -3 -9 -7 -8 -5 1 -28 -7 -53
-19 -43 -19 -63 -27 -85 -33 -5 -2 -39 -16 -75 -32 -36 -16 -67 -29 -70 -29
-7 1 -73 -20 -85 -28 -5 -3 -14 -6 -20 -7 -5 -1 -57 -17 -115 -34 -58 -18
-112 -34 -120 -36 -8 -2 -33 -8 -55 -14 -22 -6 -51 -13 -65 -16 -14 -3 -43
-10 -65 -16 -45 -12 -65 -16 -80 -17 -5 -1 -10 -18 -11 -39 0 -20 -4 -91 -8
-157 -4 -66 -9 -156 -11 -200 -3 -44 -7 -111 -10 -150 -3 -38 -8 -122 -11
-185 -3 -63 -7 -140 -9 -170 -4 -51 -15 -230 -20 -327 -3 -71 -15 -61 -16 13
-1 38 -2 80 -4 94 -1 14 -5 86 -9 160 -4 74 -9 160 -11 190 -6 92 -17 272 -20
325 -1 28 -6 100 -10 160 -4 61 -9 137 -10 170 -1 33 -3 72 -4 86 -1 25 -6 27
-151 63 -386 94 -746 234 -998 387 -35 21 -66 39 -68 39 -3 0 -14 9 -26 20
-12 11 -40 32 -62 47 -23 16 -47 34 -54 41 -26 24 -21 12 20 -50z"/>
</g>
</svg>
